<svg viewBox="0 0 560 456" xmlns="http://www.w3.org/2000/svg" font-family="'Segoe UI','Helvetica Neue',Arial,sans-serif" role="img"><rect x="0" y="0" width="560" height="456" fill="#ffffff"/>
  <rect x="16" y="16" width="528" height="424" rx="14" fill="#fbf8f0" stroke="#e3d08f" stroke-width="2"/>
  <text x="40" y="34" font-size="19" fill="#8e631f" text-anchor="start"><tspan x="40" dy="19">Indkøb-værktøjslinjen</tspan></text>
  <text x="40" y="64" font-size="11.5" fill="#7a6c58" text-anchor="start"><tspan x="40" dy="11.5">📸  Læg dit eget screenshot ved siden af — numrene passer til knapperne</tspan></text>
  <ellipse cx="53" cy="118" rx="13" ry="13" fill="#c0392b" stroke="#8f2820" stroke-width="2"/>
  <text x="53" y="107" font-size="14" fill="#fff" text-anchor="middle"><tspan x="53" dy="14">1</tspan></text>
  <text x="80" y="102" font-size="14.5" fill="#402d15" text-anchor="start"><tspan x="80" dy="14.5">Søg</tspan></text>
  <text x="80" y="121" font-size="11.5" fill="#7a6c58" text-anchor="start"><tspan x="80" dy="11.5">find en vare på listen</tspan></text>
  <ellipse cx="53" cy="168" rx="13" ry="13" fill="#c0392b" stroke="#8f2820" stroke-width="2"/>
  <text x="53" y="157" font-size="14" fill="#fff" text-anchor="middle"><tspan x="53" dy="14">2</tspan></text>
  <text x="80" y="152" font-size="14.5" fill="#402d15" text-anchor="start"><tspan x="80" dy="14.5">+ Tilføj vare</tspan></text>
  <text x="80" y="171" font-size="11.5" fill="#7a6c58" text-anchor="start"><tspan x="80" dy="11.5">søg en Grocy-vare og læg på</tspan></text>
  <ellipse cx="53" cy="218" rx="13" ry="13" fill="#c0392b" stroke="#8f2820" stroke-width="2"/>
  <text x="53" y="207" font-size="14" fill="#fff" text-anchor="middle"><tspan x="53" dy="14">3</tspan></text>
  <text x="80" y="202" font-size="14.5" fill="#402d15" text-anchor="start"><tspan x="80" dy="14.5">+ Opret/kobl</tspan></text>
  <text x="80" y="221" font-size="11.5" fill="#7a6c58" text-anchor="start"><tspan x="80" dy="11.5">ny vare / kobl varenummer</tspan></text>
  <ellipse cx="53" cy="268" rx="13" ry="13" fill="#c0392b" stroke="#8f2820" stroke-width="2"/>
  <text x="53" y="257" font-size="14" fill="#fff" text-anchor="middle"><tspan x="53" dy="14">4</tspan></text>
  <text x="80" y="252" font-size="14.5" fill="#402d15" text-anchor="start"><tspan x="80" dy="14.5">📉 Manglende</tspan></text>
  <text x="80" y="271" font-size="11.5" fill="#7a6c58" text-anchor="start"><tspan x="80" dy="11.5">forslag: varer under minimum</tspan></text>
  <ellipse cx="53" cy="318" rx="13" ry="13" fill="#c0392b" stroke="#8f2820" stroke-width="2"/>
  <text x="53" y="307" font-size="14" fill="#fff" text-anchor="middle"><tspan x="53" dy="14">5</tspan></text>
  <text x="80" y="302" font-size="14.5" fill="#402d15" text-anchor="start"><tspan x="80" dy="14.5">⏰ Udløbende</tspan></text>
  <text x="80" y="321" font-size="11.5" fill="#7a6c58" text-anchor="start"><tspan x="80" dy="11.5">forslag: varer der snart udløber</tspan></text>
  <ellipse cx="53" cy="368" rx="13" ry="13" fill="#c0392b" stroke="#8f2820" stroke-width="2"/>
  <text x="53" y="357" font-size="14" fill="#fff" text-anchor="middle"><tspan x="53" dy="14">6</tspan></text>
  <text x="80" y="352" font-size="14.5" fill="#402d15" text-anchor="start"><tspan x="80" dy="14.5">Efter kategori / leverandør</tspan></text>
  <text x="80" y="371" font-size="11.5" fill="#7a6c58" text-anchor="start"><tspan x="80" dy="11.5">skift visning — samme liste</tspan></text>
  <text x="40" y="422" font-size="11" fill="#a89a83" text-anchor="start"><tspan x="40" dy="11">Bon v2 · Indkøb — køkken · Indkøb-værktøjslinjen (1/5 skærme)</tspan></text>
</svg>