<svg viewBox="0 0 1210 560" xmlns="http://www.w3.org/2000/svg" font-family="'Segoe UI','Helvetica Neue',Arial,sans-serif" role="img">
  <defs></defs>
  <rect x="0" y="0" width="1210" height="560" fill="#ffffff"/>
  <text x="20" y="16" font-size="20" fill="#8e631f" text-anchor="start"><tspan x="20" dy="20">Fra Råvarer på en bon (🛒 pr. vare)  (rekonstruktion, annoteret)</tspan></text>
  <text x="20" y="44" font-size="12" fill="#7a6c58" text-anchor="start"><tspan x="20" dy="12">Tro rekonstruktion af UI'et — kan erstattes med et rigtigt screenshot.</tspan></text>
  <rect x="300" y="100" width="500" height="300" rx="14" fill="#fff" stroke="#8e631f" stroke-width="2"/>
  <text x="320" y="118" font-size="15" fill="#5a3f14" text-anchor="start"><tspan x="320" dy="15">Råvarer — Falaflen ×20</tspan></text>
  <rect x="320" y="148" width="110" height="30" rx="14" fill="#f7f4ee" stroke="#d7d1ca" stroke-width="2"/>
  <text x="375" y="156" font-size="12.5" fill="#7a6c58" text-anchor="middle"><tspan x="375" dy="12.5">🔧 Produktion</tspan></text>
  <rect x="436" y="148" width="100" height="30" rx="14" fill="#f1e6b2" stroke="#8e631f" stroke-width="2"/>
  <text x="486" y="156" font-size="12.5" fill="#5a3f14" text-anchor="middle"><tspan x="486" dy="12.5">📦 Råvarer</tspan></text>
  <rect x="320" y="196" width="462" height="180" rx="14" fill="#fff" stroke="#d7d1ca" stroke-width="2"/>
  <ellipse cx="342" cy="214" rx="6" ry="6" fill="#b3453a" stroke="#b3453a" stroke-width="2"/>
  <text x="360" y="214" font-size="13" fill="#402d15" text-anchor="start"><tspan x="360" dy="13">Falaffel</tspan></text>
  <text x="560" y="214" font-size="11" fill="#7a6c58" text-anchor="start"><tspan x="560" dy="11">35 stk / lager 0</tspan></text>
  <rect x="720" y="200" width="44" height="30" rx="14" fill="#eef6f0" stroke="#b8dcc6" stroke-width="2"/>
  <text x="742" y="208" font-size="12.5" fill="#2f7d4f" text-anchor="middle"><tspan x="742" dy="12.5">🛒</tspan></text>
  <ellipse cx="342" cy="254" rx="6" ry="6" fill="#b06a1a" stroke="#b06a1a" stroke-width="2"/>
  <text x="360" y="254" font-size="13" fill="#402d15" text-anchor="start"><tspan x="360" dy="13">Rødløg</tspan></text>
  <text x="560" y="254" font-size="11" fill="#7a6c58" text-anchor="start"><tspan x="560" dy="11">2 kg / lager 0,4</tspan></text>
  <rect x="720" y="240" width="44" height="30" rx="14" fill="#eef6f0" stroke="#b8dcc6" stroke-width="2"/>
  <text x="742" y="248" font-size="12.5" fill="#2f7d4f" text-anchor="middle"><tspan x="742" dy="12.5">🛒</tspan></text>
  <ellipse cx="342" cy="294" rx="6" ry="6" fill="#2f7d4f" stroke="#2f7d4f" stroke-width="2"/>
  <text x="360" y="294" font-size="13" fill="#402d15" text-anchor="start"><tspan x="360" dy="13">Brød Rug</tspan></text>
  <text x="560" y="294" font-size="11" fill="#7a6c58" text-anchor="start"><tspan x="560" dy="11">20 stk / lager 61</tspan></text>
  <rect x="720" y="280" width="44" height="30" rx="14" fill="#eef6f0" stroke="#b8dcc6" stroke-width="2"/>
  <text x="742" y="288" font-size="12.5" fill="#2f7d4f" text-anchor="middle"><tspan x="742" dy="12.5">🛒</tspan></text>
  <ellipse cx="342" cy="334" rx="6" ry="6" fill="#2f7d4f" stroke="#2f7d4f" stroke-width="2"/>
  <text x="360" y="334" font-size="13" fill="#402d15" text-anchor="start"><tspan x="360" dy="13">Tahin</tspan></text>
  <text x="560" y="334" font-size="11" fill="#7a6c58" text-anchor="start"><tspan x="560" dy="11">0,3 kg / lager 2</tspan></text>
  <rect x="720" y="320" width="44" height="30" rx="14" fill="#eef6f0" stroke="#b8dcc6" stroke-width="2"/>
  <text x="742" y="328" font-size="12.5" fill="#2f7d4f" text-anchor="middle"><tspan x="742" dy="12.5">🛒</tspan></text>
  <ellipse cx="308" cy="158" rx="12" ry="12" fill="#c0392b" stroke="#8f2820" stroke-width="2"/>
  <text x="308" y="148" font-size="13" fill="#fff" text-anchor="middle"><tspan x="308" dy="13">1</tspan></text>
  <ellipse cx="328" cy="208" rx="12" ry="12" fill="#c0392b" stroke="#8f2820" stroke-width="2"/>
  <text x="328" y="198" font-size="13" fill="#fff" text-anchor="middle"><tspan x="328" dy="13">2</tspan></text>
  <ellipse cx="710" cy="200" rx="12" ry="12" fill="#c0392b" stroke="#8f2820" stroke-width="2"/>
  <text x="710" y="190" font-size="13" fill="#fff" text-anchor="middle"><tspan x="710" dy="13">3</tspan></text>
  <rect x="850" y="100" width="360" height="192" rx="14" fill="#faf6ea" stroke="#e3d08f" stroke-width="2"/>
  <text x="870" y="116" font-size="15" fill="#5a3f14" text-anchor="start"><tspan x="870" dy="15">Råvarer-boksen på en bon</tspan></text>
  <ellipse cx="881" cy="156" rx="11" ry="11" fill="#c0392b" stroke="#8f2820" stroke-width="2"/>
  <text x="881" y="147" font-size="12" fill="#fff" text-anchor="middle"><tspan x="881" dy="12">1</tspan></text>
  <text x="902" y="143" font-size="13.5" fill="#402d15" text-anchor="start"><tspan x="902" dy="13.5">Produktion / Råvarer</tspan></text>
  <text x="902" y="161" font-size="11" fill="#7a6c58" text-anchor="start"><tspan x="902" dy="11">skift visning</tspan></text>
  <ellipse cx="881" cy="200" rx="11" ry="11" fill="#c0392b" stroke="#8f2820" stroke-width="2"/>
  <text x="881" y="191" font-size="12" fill="#fff" text-anchor="middle"><tspan x="881" dy="12">2</tspan></text>
  <text x="902" y="187" font-size="13.5" fill="#402d15" text-anchor="start"><tspan x="902" dy="13.5">Status-prik</tspan></text>
  <text x="902" y="205" font-size="11" fill="#7a6c58" text-anchor="start"><tspan x="902" dy="11">🔴 mangler · 🟡 lav · 🟢 ok</tspan></text>
  <ellipse cx="881" cy="244" rx="11" ry="11" fill="#c0392b" stroke="#8f2820" stroke-width="2"/>
  <text x="881" y="235" font-size="12" fill="#fff" text-anchor="middle"><tspan x="881" dy="12">3</tspan></text>
  <text x="902" y="231" font-size="13.5" fill="#402d15" text-anchor="start"><tspan x="902" dy="13.5">🛒 pr. vare</tspan></text>
  <text x="902" y="249" font-size="11" fill="#7a6c58" text-anchor="start"><tspan x="902" dy="11">tilføj den vare til indkøbslisten</tspan></text>
  <text x="20" y="538" font-size="12" fill="#a89a83" text-anchor="start"><tspan x="20" dy="12">Bon v2 · Indkøb — køkken · Fra Råvarer (08c)</tspan></text>
</svg>